<svg xmlns="http://www.w3.org/2000/svg" xmlns:xlink="http://www.w3.org/1999/xlink" width="500" zoomAndPan="magnify" viewBox="0 0 375 374.999991" height="500" preserveAspectRatio="xMidYMid meet" version="1.0"><path fill="#ffffff" d="M 187.867188 -0.328125 C 84.199219 -0.328125 0.175781 83.6875 0.175781 187.355469 C 0.175781 291.015625 84.199219 375.046875 187.867188 375.046875 C 291.507812 375.046875 375.542969 291.011719 375.542969 187.355469 C 375.542969 83.6875 291.5 -0.328125 187.867188 -0.328125 Z M 187.851562 53.78125 C 206.667969 53.78125 224.863281 57.765625 242.027344 65.570312 C 242.027344 67.429688 242.027344 147.140625 242.027344 153.1875 C 237.53125 149.117188 145.441406 65.503906 141.957031 62.355469 C 156.792969 56.804688 172.1875 53.78125 187.851562 53.78125 Z M 56.472656 185.175781 C 56.472656 135.648438 83.871094 91.007812 127.988281 68.339844 C 129.472656 69.734375 175.488281 111.464844 177.707031 113.476562 C 175.402344 115.554688 64.800781 216.074219 61.25 219.3125 C 58.171875 207.933594 56.472656 196.449219 56.472656 185.175781 Z M 120.222656 297.410156 C 95.679688 282.554688 76.472656 260.167969 65.9375 233.742188 C 67.445312 232.371094 115.832031 188.398438 120.222656 184.40625 C 120.222656 190.472656 120.222656 292.242188 120.222656 297.410156 Z M 199.832031 316.015625 L 175.730469 316.015625 C 161.363281 314.65625 147.386719 310.96875 134.015625 304.984375 C 134.015625 303.09375 134.015625 245.015625 134.015625 242.265625 C 136.84375 242.265625 301.136719 242.265625 305.867188 242.265625 C 285.730469 283.804688 245.222656 311.769531 199.832031 316.015625 Z M 311.777344 228.4375 C 309.710938 228.4375 258.574219 228.4375 255.859375 228.4375 C 255.859375 225.625 255.859375 78.308594 255.859375 73.09375 C 294.953125 96.882812 319.222656 139.519531 319.222656 185.183594 C 319.238281 199.902344 316.660156 214.429688 311.777344 228.4375 Z M 311.777344 228.4375 " fill-opacity="1" fill-rule="nonzero"/></svg>